<svg xmlns="http://www.w3.org/2000/svg" viewBox="0 0 219.6 102"><defs><style>.cls-1{fill:#ff4713;}.cls-2{fill:#e07c00;}.cls-3{fill:#ffbf3c;}</style></defs><g id="Layer_2" data-name="Layer 2"><g id="Homepage"><path class="cls-1" d="M206.86,25.48H12.74A12.74,12.74,0,0,1,12.74,0H206.86a12.74,12.74,0,0,1,0,25.48Z"/><path class="cls-2" d="M206.86,68H12.74C5.7,68,0,64.19,0,59.48S5.7,51,12.74,51H206.86c7,0,12.74,3.82,12.74,8.52S213.9,68,206.86,68Z"/><path class="cls-3" d="M206.86,102H12.74C5.7,102,0,100.19,0,98s5.7-4,12.74-4H206.86c7,0,12.74,1.81,12.74,4S213.9,102,206.86,102Z"/></g></g></svg>