<svg xmlns="http://www.w3.org/2000/svg" viewBox="0 0 68.77 68.73"><defs><style>.cls-1{fill:#101820;}.cls-2{fill:#fff;}</style></defs><g id="Layer_2" data-name="Layer 2"><g id="Homepage"><path class="cls-1" d="M42.4,1.46l.2,0C42.48,1.41,42.42,1.43,42.4,1.46Z"/><path class="cls-1" d="M28.18.86a.54.54,0,0,1-.25.19C28.07,1,28.17,1,28.18.86Z"/><path class="cls-1" d="M29.53.79a.86.86,0,0,0,.17,0S29.69.73,29.53.79Z"/><path class="cls-1" d="M68.55,37A9.1,9.1,0,0,0,68,35.28c-.32-.27-.5-1-.91-.71-.1-.51.5-.75.17-.85-.26.7-.86-.22-1.3.45l-.06-.43c-.24-.08.24.59-.19.48l.62.13a1,1,0,0,1-.47.65c.23.33,1.06.59.65,1.36l0-.22c0,.65-.43.36-.54.48l0-.14c-.12.17-.22.34-.35.5.25-.38-.24-1.08-.22-.73-.21.72.17-.18.21.38,0,.35-.32.22-.5.19l-.07.61c-.29-.06.08-.4-.26-.19L65,38c-.75,0,.22.9-.52,1.13a.51.51,0,0,0,0-.2,30.33,30.33,0,0,0,.46-5.25,30,30,0,0,0-.8-6.88,3.71,3.71,0,0,1,.4.15L64,26.55l-.06-.3c.11-.17.16-.51.39-.14L64,25l.44-.24c-.15-.25-.25-.23-.22.12,0-.44-1.4-1.4-.41-1.52-.72-.72-.6-1.12-1.33-2,.78.59.09-1.13.68-.39,0-.58-.57-.46-.82-.8,0-.45.51-.51.87-.19l-.43-.36.09,0-.43-.27c0-.54.4-.33.22-.79l-.44.12,0-.41c-.1.21-.33,0-.54-.28l.09,0-.29-.33c.44.23-.13-.38.24-.38a5.11,5.11,0,0,0-.6-.86l-.19.27c-.67-.59.36-.28,0-.87l-.25.22c-.14-1.14-1.28-1.18-1.44-2,.32.29.57,0,.48,0a5.45,5.45,0,0,0-1.89-1.5,1.25,1.25,0,0,0,0-1.33c-.38-.35-.48-.35-.8-.26-.23-.47-1.1-.88-.88-1.16-.27.14-.29-.34-.65-.34l0-.15-.18.29c-.18-1.16-1.42-.55-1.71-1.61h.17l-.37-.11c0-.16.21-.14.34-.29a14,14,0,0,0-1.4-1l.15.39c-.33-.16-.71,0-1-.4.86-.07-.47-.31-.37-.71l.39.08c-.46-.24-.46-.24-.59.08-.63-.23-.06-.82-.78-.78l.37.22c0,.24-.38.31-.64.19,0-.07-.15-.3.07-.24-.52-.11-1.15-.61-1.41-.58-.21-.22,0-.4.15-.42-1.13-.19-.42-.31-1.57-.45l.09-.18-.44.08-.37-.57.09.3a2.38,2.38,0,0,1-1-.29L45.79,3c-1-.21-1-.89-2.07-.74-.06-.07.12-.12.21-.14-1,.2-.55-.68-1.59-.38.08-.07,0-.22.06-.29l-.46.08.12-.37-.46.47-.18-.44-.2.16c-.31-.8-1-.35-1.59-1l0,.5A2.22,2.22,0,0,1,38.38,1,7,7,0,0,1,37,.75,5.15,5.15,0,0,0,34.16.43l0-.39-.78.49c-.44-.28.24-.34.1-.53-.84.26-.33.59-1.29.75-.53-.24.15-.3.38-.45a10.67,10.67,0,0,1-2.9.52c0,.06,0,.13,0,.15-.58.27-1.41.18-2.06.4,0-.18.14-.25.29-.32-.24,0-.59,0-.75.22l.17-.38c-.53.06-1.43.61-1.65.26.1.13.16.41-.28.51-.43-.53-1.1.62-1.87.56,0-.16.52-.37.38-.33-.4,0-.62.35-.85.63V2.27a16.87,16.87,0,0,0-1.45.92c-.47-.44-1.39.76-1.48.32-.55.25.58,0-.08.41-.29-.13-.56.41-.71.05l.05-.08L19,4.15l.13-.48a1,1,0,0,0-.36,1.06c-.48,0-.91.5-1.26.31l.09-.16A3.27,3.27,0,0,1,16,5.39a1.35,1.35,0,0,0-1.15.83c-.09,0-.14-.08,0-.17l-.63.44,0-.34L13.4,7.26l-.11-.15a20.51,20.51,0,0,0-2.37,2.22L11,9.16c-.64,1-.92.69-1.36,1.47,0-.06,0-.09,0-.12l-.52.58,0-.25c-.08.69-1.51.9-1,.85-.06.38-.22,1-.09,1.19-.49.69-.32,0-.77.34-.39.49-.19.76-.81,1.34l-.16-.12c-.17.36-.19.64-.45,1.12v-.19c-.11,1-1.07.67-.7,1.68-.34.23-.53.94-.86.73-.25,1.12-.56,1.92-.82,3-.66-.07-.05.23-.62.73l.34.07A14.21,14.21,0,0,1,2,23.77,8.81,8.81,0,0,0,1,26.22l-.34,0,.28.42c-.25.9-.47,1.95-.68,3A19.12,19.12,0,0,0,0,32.31a5.15,5.15,0,0,1,.43,2l0-.08A26.46,26.46,0,0,1,.85,38.4c-.16-.07-.24.09-.35-.06.42.29.15.85.18,1.16l.2-.4a1,1,0,0,1-.05,1.25,6.68,6.68,0,0,0,.49.57s-.06.13-.11.15l.21.07-.36.44c.13.14.46,1,.94,1.11-.13.09-.08.72-.28.28a15.62,15.62,0,0,0,.6,2.33l0-.4c.31-.16.75.44.73.84-.42-.36-.46.13-.63.42.29.24.19-.38.42-.28a2.35,2.35,0,0,1,.71,1.31L3.34,47c.35.45-.08.92.19,1.41.46.33.39.76.87.41.41.58-.24.43-.19.66a1.44,1.44,0,0,1,.52,1.38c.94-.1.74,1.81,1.42,1.55l0,.72a.8.8,0,0,1,.94.09c.09.47-.24.59-.32.81l.76-.18c.83,2.6,3.63,4.66,5.37,7,1.13.62,2.53,1.4,3.76,2.19h-.19L17.6,64l-.75-.84a3.61,3.61,0,0,1,.86.27A11.27,11.27,0,0,0,19.93,65a12,12,0,0,0,1.33.7,7.62,7.62,0,0,0,1.47.4c1.48-.34.56,1,1.92.83-.12,0-.2.14-.31.18a15,15,0,0,0,3.48,0c-.32.79.84.15.64.54l.17-.31c.25.25.92.42.79.65l.64-.33V68c.38.06,1,.11,1.55.18s1.06.18,1.25.54a34.81,34.81,0,0,1,3.51-.33c.65,0,1.32-.05,2-.06s1.29-.13,1.9-.18a3,3,0,0,1,1.52-.57c.22.11.43.18.65.27.53-.26,1-.9,1.54-.78a.13.13,0,0,1,0,.12c.52-.24,1.12-.14,1.51-.67.58-.19,1.22-.19,1.17.23-.17-.66,1.29-.37,1.29-.37A32.28,32.28,0,0,0,62,56.72a29.27,29.27,0,0,0,6.16-12,21.39,21.39,0,0,0,.5-2.93,13.13,13.13,0,0,0,.1-2.63A15.75,15.75,0,0,0,68.55,37Z"/><circle class="cls-1" cx="34.95" cy="33.72" r="26.93"/><path class="cls-2" d="M27.66,50.27c14.83,0,22.93-12.28,22.93-22.93,0-.34,0-.69,0-1a16.26,16.26,0,0,0,4-4.17A16.16,16.16,0,0,1,50,23.4a8.09,8.09,0,0,0,3.54-4.46,16.21,16.21,0,0,1-5.11,2,8.07,8.07,0,0,0-13.74,7.35,22.91,22.91,0,0,1-16.6-8.42,8.07,8.07,0,0,0,2.49,10.76,8.13,8.13,0,0,1-3.66-1v.1a8.07,8.07,0,0,0,6.47,7.9,8.14,8.14,0,0,1-3.64.14,8.06,8.06,0,0,0,7.53,5.59,16.15,16.15,0,0,1-10,3.46,15.47,15.47,0,0,1-1.92-.12,22.85,22.85,0,0,0,12.35,3.62"/></g></g></svg>