<svg xmlns="http://www.w3.org/2000/svg" viewBox="0 0 438.68 124.11"><defs><style>.cls-1{fill:#101820;}</style></defs><g id="Layer_2" data-name="Layer 2"><g id="Homepage"><path class="cls-1" d="M407.66,5.47a.61.61,0,0,0,.22-.3C407.69,5.28,407.63,5.38,407.66,5.47Z"/><path class="cls-1" d="M327.6,3.47l.94-.15A2,2,0,0,0,327.6,3.47Z"/><path class="cls-1" d="M438.61,41.11c0-.06,0-.06-.07-.11,0,.74,0,1.74-.05,3.37Z"/><path class="cls-1" d="M156.87,1.23h1.07A9,9,0,0,0,156.87,1.23Z"/><path class="cls-1" d="M256.69,3c.65,0,1.18,0,1.36-.22A5.58,5.58,0,0,1,256.69,3Z"/><path class="cls-1" d="M399.84,119.89a16.05,16.05,0,0,0,3.86-.61Z"/><path class="cls-1" d="M2.7,25.11l0-.43C2.6,25.05,2.63,25.13,2.7,25.11Z"/><path class="cls-1" d="M400.44,115.87a2.22,2.22,0,0,0,.34.22,3.59,3.59,0,0,1,.8-.11Z"/><path class="cls-1" d="M95.28,122.56h0c-.12,0-.2,0-.32.08Z"/><path class="cls-1" d="M103.82,123.27l-1.82.14A4.87,4.87,0,0,0,103.82,123.27Z"/><path class="cls-1" d="M403.7,119.28l2.2-.34A14.29,14.29,0,0,0,403.7,119.28Z"/><path class="cls-1" d="M264.54,3c.21,0,.5.06.75.09C265.37,3,265.32,2.91,264.54,3Z"/><path class="cls-1" d="M438.18,54.49l-.48-2.31c.46-2.44.86-.51,1-3l-.76-.55.45-1.71c-.35.64-.51-.85-.57-2.68l.17,0L437.83,42c.46,2.2.16-2,.71-1,0-1,0-1.44,0-2.11s0-1.52-.22-3.44l-.48.69c-.32-2.39-.26-2.44,0-2.42s.61.18.33-1.8l-.55.34a13.58,13.58,0,0,0-.57-3.94,22.4,22.4,0,0,0-1.4-3.24c-1.1-2-2.28-3.58-3.24-5.46,1.49,1.89,1.68,1.07,1.54,1.1a36.56,36.56,0,0,0-4.29-5.11,30.16,30.16,0,0,0-2.76-2.27,16.86,16.86,0,0,0-2.78-1.52c-.71-1.41-.77-2-4.25-4-2.75-1-3.19-1-4.24-.76A20.77,20.77,0,0,0,410.73,6c-1.66-.09-3-.18-3.07-.5-.62.48-2.25-.11-3.63.31l-.29-.26.21.6c-4.41-1.34-7.46.76-11.92-.41l.77-.16-1.88.23c-.29-.26.47-.42.56-.77l-8.72-.11,1.72.45c-1.84.06-3.07.64-5.17.27,3.49-.89-2.9,0-3.46-.72l1.87-.24c-2.55,0-2.55,0-2.34.66-3.32.21-2.28-1.15-5.34-.5l2.18,0c.64.35-.92.84-2.38.82-.34-.09-1.37-.36-.26-.43-2.61.22-6.53-.09-7.68.15-1.42-.18-.95-.61-.18-.77-5.59.52-2.53-.12-8.12.4l.09-.34-1.92.41L349,4.37l1,.44a32.85,32.85,0,0,1-5.12.1l.87-.5c-5.18.27-6-.85-10.91-.15-.33-.09.43-.25.83-.33-4.57.79-3.45-.9-8,.07.29-.17-.21-.38,0-.53l-2.08.33.16-.68-1.71,1-1.28-.7-.81.32c-2.23-1.31-5.38-.32-8.43-1.3l.52.86c-7.7,1.78-17.59-1-26.88-.18l.16-.69-3.84.81c-2.05-.54,1.24-.59.6-.94-4.11.38-1.71,1-6.48,1.2-2.44-.46.85-.5,2-.74-4.47.33-11.07.71-14.24.32-.08.1-.27.22-.11.26-3,.3-6.91,0-10.2,0,.08-.31.89-.36,1.71-.42a13,13,0,0,0-3.8.06l1.23-.59c-2.52-.12-7.38.41-7.94-.28.3.27.18.78-2,.75-1.21-1-5.94.43-9.43-.13A17.9,17.9,0,0,1,237,2.45a13,13,0,0,0-4.87.53l.47-.42-8.15.58c-1.2-1-7.69.15-7.13-.61-2.91,0,2.44.46-1.24.58-1-.44-3.32.21-3.17-.47l.39-.08-2.57,0L212.37,2c-2.22.14-3.84.81-4,1.32-2.09-.38-5.07-.07-6-.68l.78-.16c-5.89.26-9.76-1.84-14.39-.71-.35-.09-.3-.26.42-.25l-3.64-.05.87-.5-6,.78.08-.34c-4-.14-10.2,0-15.31.13l.76-.16c-5.58.53-5.39-.33-9.48,0a1.06,1.06,0,0,1,.43-.15l-3.67,0L154,.92c-2.73.73-7.78-1-6.11-.34-1.54.32-4.19.72-4.64,1.13-4,0-1-.43-3.47-.72-2.9,0-3.41.55-7.34.24l.08-.34c-1.84.06-3,.3-5.54.35l.76-.16c-4.17.72-5.21-1-8.49.49-1.75-.28-5.07-.07-4.91-.75-5.21.44-9.25.64-14.42.92-.83-1.12-1.11.07-4.24-.57l.23.6C88.62,1.85,80.23.36,72.17.6L72,0,70.34.66C61.66.38,50.44.14,43.53.13,42.39.29,41,.55,39.38.74c-.81.1-1.61.17-2.53.23-1.11.08-2.26.15-3.42.16L33.91,1A41.41,41.41,0,0,0,11.45,11.67c.22-.55-.55-.08.07-.87C10.45,12.69,8,14.6,6.89,16.18l1.69-1.5a29.21,29.21,0,0,1-4.36,6,29.74,29.74,0,0,0-1,3.89c-.15.22-.38.56-.49.58l.07.76a18.15,18.15,0,0,0-1.38,1.79c-.19,1-1,6.25-.15,7.9a10,10,0,0,0-.43,1.79c-.06.28-.1.41-.15.38s-.09-.24-.09-1L.31,48.12l.28-1.75c.6-.22,1,3.16.71,4.9C.81,49,.44,51.08,0,52.06c.32,1.52.53-1.33.86-.52a26,26,0,0,1,.34,7L1,57.38c.22,2.6-.82,3.81-.77,6.37.48,2.31,0,4,1.07,3.53.21,3.34-.71,1.29-.81,2.37C1,71.21.63,75.87.1,76.46c1.52,1.86-.55,8.91.74,9.72C.65,87.34.46,88.53.31,89.74c.37.08,1.2.7,1.8,3.42.28,2.63-.43,2.19-.56,3.08a20.81,20.81,0,0,0,1.76,1.33C5,105,10.7,112.78,18.64,117.45a37.4,37.4,0,0,0,12.92,4.73,23.11,23.11,0,0,0,3.39.43l1.7.13,1.37.07c1.72.09,3.42.2,5.06.34,5.89-.27,13.31-.86,20.19-.68l-.76.17,6.83.34-5-.58a34.12,34.12,0,0,1,4.1-.37c7.5.53,17.5,1.17,26.75.53,6-1.47,4,1.29,9.7.23-.49.13-.67.34-1.11.48,6.17-.48,9.52-.74,15.7-1.59-.71,1.44,4,0,3.46.73l.52-.59c1.37.36,4.61.49,4.14.91l2.73-.74.23.61c3.61,0,11.38-.45,13.28.77,9-.91,23.08-.63,34.3-.4,1.58-.49,4.87-.53,7.43-.58l2.73.72c2.61-.23,5.38-1.13,7.8-.67,0,.08-.11.14-.28.19,2.65-.15,5.17.23,7.64-.43,2.57,0,5.07.33,5,.87.95-.79,6,.39,6,.39s149,2.91,185.36-3.57c1.22-.59,4.61-1,3.31-1.67,2.61-.22,3.81.82,4.31.23-3.54-.4,1.11-1.53-2.37-2.26l2.23-.15c.46-.41-3,.48-2.48-.28l-.63,1.1a8.77,8.77,0,0,1-3.43-.77c-1.69.43-2.77,1.92-6.82,1.27l1.12-.06c-3.3,0-2-.72-2.71-.9h.73l-2.78-.55c2.1.37,5.58-.53,3.76-.46-3.93-.31,1,.27-1.93.4-1.83.06-1.32-.53-1.24-.87l-3.28,0c.11-.51,2.17,0,.84-.5l-4.14.54c-.78-1.29-4.51.62-6.4-.6a5.44,5.44,0,0,0,1.18-.19h28.35a28.42,28.42,0,0,0,27.46-21.47c.11.49.24.92.31,1.44.06-1,.09-2.08.07-3.11.08-.44.14-.9.2-1.35a7,7,0,0,0,.49-1c.16-.54.42-.77.36.77a47.76,47.76,0,0,0,.08-6.32l.86-.52c-.15-1.49-.32-1.53-.43.25.2-2.13-1.5-9.45.2-8.32-.71-4.89-.43-6.66-.86-12.58.79,4.56,1-5.22,1.37-.39.38-2.83-.55-3.42-.69-5.64.36-2.09,1.21-1.16,1.52,1.1L438,54.44Z"/><path class="cls-1" d="M208.34,123.28a.31.31,0,0,0,.15-.21A.38.38,0,0,0,208.34,123.28Z"/></g></g></svg>