<svg xmlns="http://www.w3.org/2000/svg" viewBox="0 0 740.89 209.61"><defs><style>.cls-1{fill:#ffbf3c;}</style></defs><g id="Layer_2" data-name="Layer 2"><g id="Homepage"><path class="cls-1" d="M688.5,9.23a.88.88,0,0,0,.36-.5C688.54,8.93,688.45,9.09,688.5,9.23Z"/><path class="cls-1" d="M553.29,5.86l1.58-.25C553.83,5.65,553.44,5.74,553.29,5.86Z"/><path class="cls-1" d="M740.78,69.44a1,1,0,0,0-.13-.19c0,1.25,0,2.94-.09,5.69Z"/><path class="cls-1" d="M264.94,2.09l1.81,0A11.44,11.44,0,0,0,264.94,2.09Z"/><path class="cls-1" d="M433.53,5c1.1,0,2,0,2.29-.37A8.81,8.81,0,0,1,433.53,5Z"/><path class="cls-1" d="M675.29,202.48a27.43,27.43,0,0,0,6.52-1Z"/><path class="cls-1" d="M4.57,42.41l-.06-.73C4.38,42.31,4.45,42.44,4.57,42.41Z"/><path class="cls-1" d="M676.3,195.69a5.29,5.29,0,0,0,.58.38,6.66,6.66,0,0,1,1.36-.2Z"/><path class="cls-1" d="M160.92,207h-.09l-.54.14Z"/><path class="cls-1" d="M175.34,208.19l-3.07.25A8.5,8.5,0,0,0,175.34,208.19Z"/><path class="cls-1" d="M681.81,201.46l3.71-.59A23,23,0,0,0,681.81,201.46Z"/><path class="cls-1" d="M446.78,5.05c.36.07.85.1,1.26.16C448.18,5,448.1,4.91,446.78,5.05Z"/><path class="cls-1" d="M740.05,92l-.82-3.89c.78-4.12,1.46-.87,1.66-5.13l-1.29-.92.76-2.89c-.59,1.09-.85-1.43-1-4.53l.28.07L739.45,71c.78,3.72.28-3.43,1.2-1.72,0-1.61.05-2.43,0-3.57s0-2.57-.37-5.8L739.48,61c-.54-4-.43-4.12.06-4.08s1,.31.55-3.05l-.93.59a23.36,23.36,0,0,0-.95-6.67,38,38,0,0,0-2.37-5.46c-1.86-3.31-3.85-6-5.47-9.22C732.89,36.32,733.21,35,733,35a61.91,61.91,0,0,0-7.24-8.63,50.65,50.65,0,0,0-4.66-3.82A28.87,28.87,0,0,0,716.37,20c-1.21-2.38-1.3-3.32-7.18-6.77-4.64-1.66-5.4-1.73-7.17-1.28-2.17-1-5.54-1.44-8.33-1.82-2.82-.17-5.07-.31-5.19-.86-1,.82-3.8-.17-6.14.53l-.49-.43.37,1c-7.46-2.27-12.6,1.28-20.13-.7l1.29-.27-3.17.39c-.5-.44.79-.71.94-1.29l-14.72-.19,2.89.76c-3.09.1-5.18,1.08-8.72.46,5.89-1.52-4.9-.06-5.84-1.23l3.15-.4C633.62,8,633.62,8,634,9c-5.6.35-3.83-1.93-9-.85l3.68,0c1.08.59-1.56,1.43-4,1.4-.58-.16-2.32-.61-.45-.74-4.41.39-11-.14-13,.27-2.39-.32-1.6-1-.31-1.31-9.43.89-4.26-.2-13.71.69l.16-.58-3.24.69-4.63-1.23,1.66.75c-3.1.1-5,.51-8.65.17L584,7.44c-8.74.47-10.11-1.43-18.41-.24-.57-.15.72-.42,1.38-.56-7.7,1.34-5.81-1.52-13.56.11.47-.29-.37-.64-.07-.89l-3.52.55L550,5.26,547.16,7,545,5.77l-1.37.55c-3.76-2.21-9.09-.54-14.23-2.2l.88,1.46c-13,3-29.72-1.7-45.41-.32l.28-1.15-6.48,1.36c-3.47-.92,2.09-1,1-1.58-6.94.63-2.89,1.7-10.95,2-4.13-.78,1.43-.85,3.37-1.26-7.54.56-18.69,1.19-24,.55-.12.15-.45.36-.17.42-5,.52-11.68,0-17.23.07.13-.53,1.51-.62,2.89-.72-2-.07-4.72-.44-6.43.1l2.09-1c-4.26-.2-12.47.71-13.42-.46.52.44.3,1.31-3.38,1.25-2-1.76-10,.74-15.92-.21.7-.42,5-.51,3.81-.53-3-.46-5.61.36-8.22.91l.8-.71-13.77,1c-2-1.76-13,.26-12-1-4.91-.06,4.12.78-2.09,1-1.65-.73-5.62.36-5.36-.79l.67-.13-4.34.08,2.73-1.12c-3.74.24-6.48,1.37-6.67,2.23-3.54-.63-8.57-.12-10.19-1.15l1.32-.27c-10,.45-16.48-3.11-24.31-1.19-.58-.16-.51-.44.71-.43l-6.15-.07,1.47-.85-10.17,1.3.13-.57c-6.71-.24-17.22.06-25.87.23l1.29-.27c-9.43.89-9.1-.55-16,.08a1.66,1.66,0,0,1,.72-.24l-6.21,0,1.37-.56C255.51,2.79,247-.07,249.8,1c-2.61.54-7.09,1.21-7.86,1.92-6.77.06-1.65-.75-5.85-1.24-4.89-.06-5.76.94-12.39.42l.13-.58c-3.1.1-5,.52-9.36.6l1.29-.27c-7,1.21-8.8-1.71-14.33.82-3-.47-8.58-.11-8.31-1.27-8.79.75-15.62,1.09-24.34,1.56-1.4-1.9-1.88.12-7.17-1L162,3c-12.34.13-26.5-2.38-40.1-2l-.38-1-2.73,1.12C104.14.64,85.19.24,73.51.22c-1.91.27-4.32.71-7,1-1.37.17-2.7.29-4.27.38-1.88.15-3.8.25-5.76.28l.8-.19a69.8,69.8,0,0,0-37.93,18c.37-.94-.92-.15.11-1.48-1.81,3.2-5.92,6.42-7.81,9.09l2.85-2.54A49.09,49.09,0,0,1,7.12,34.86a53,53,0,0,0-1.74,6.57c-.24.37-.63,1-.81,1l.1,1.29a30.87,30.87,0,0,0-2.32,3C2,48.37.62,57.27,2.1,60.06a15.61,15.61,0,0,0-.73,3c-.1.47-.17.69-.25.64S1,63.32,1,62.06L.52,81.27l.48-3c1-.37,1.66,5.32,1.19,8.27C1.37,82.73.75,86.27,0,87.92.55,90.5.9,85.68,1.46,87c.68,3.24,1,10.09.57,11.81l-.41-1.94C2,101.31.23,103.34.31,107.67c.82,3.9.07,6.77,1.81,6,.36,5.62-1.18,2.16-1.36,4,.84,2.64.3,10.51-.59,11.51,2.57,3.13-.94,15.05,1.25,16.41-.32,2-.64,4-.89,6,.62.13,2,1.18,3,5.77.48,4.45-.73,3.71-1,5.22a34.64,34.64,0,0,0,3,2.23c2.92,12.6,12.48,25.7,25.87,33.58a63.45,63.45,0,0,0,21.83,8,40,40,0,0,0,5.74.72l2.86.23,2.32.12c2.9.14,5.76.33,8.55.56,9.94-.45,22.47-1.44,34.09-1.14l-1.29.28,11.54.58-8.38-1a59.3,59.3,0,0,1,6.92-.63c12.67.89,29.57,2,45.18.89,10.1-2.46,6.71,2.19,16.39.39-.83.23-1.14.58-1.88.82,10.42-.82,16.08-1.24,26.52-2.69-1.2,2.45,6.79-.05,5.85,1.24l.87-1c2.32.61,7.78.82,7,1.54l4.6-1.24.4,1c6.09.08,19.21-.75,22.41,1.31,15.12-1.53,39-1.07,57.95-.67,2.66-.84,8.21-.91,12.54-1l4.62,1.21c4.4-.37,9.07-1.9,13.17-1.12,0,.14-.19.24-.48.31,4.47-.25,8.73.4,12.91-.72,4.33.05,8.55.57,8.42,1.47,1.61-1.32,10.12.65,10.12.65s251.65,4.92,313-6c2.07-1,7.78-1.64,5.59-2.82,4.41-.38,6.44,1.38,7.29.39-6-.67,1.86-2.58-4-3.82l3.76-.24c.77-.71-5.12.8-4.19-.48l-1.06,1.86c-3-.28-4.72-.67-5.8-1.3-2.86.72-4.69,3.24-11.52,2.14l1.88-.11c-5.56.07-3.41-1.2-4.57-1.51l1.23,0-4.69-.94c3.55.63,9.42-.88,6.35-.77-6.64-.52,1.72.45-3.26.68-3.09.09-2.22-.9-2.09-1.48l-5.55.07c.19-.86,3.68.05,1.43-.84l-7,.91c-1.3-2.18-7.61,1.06-10.81-1a9.39,9.39,0,0,0,2-.32h47.89a48,48,0,0,0,46.36-36.27,21.55,21.55,0,0,1,.52,2.44c.11-1.78.16-3.52.12-5.25.14-.75.25-1.52.35-2.29a11.68,11.68,0,0,0,.82-1.66c.28-.92.72-1.3.62,1.3a84.75,84.75,0,0,0,.13-10.67l1.45-.89c-.25-2.52-.54-2.59-.72.42.34-3.59-2.54-15.95.33-14-1.19-8.26-.72-11.24-1.45-21.24,1.34,7.69,1.7-8.82,2.32-.67.64-4.77-.94-5.76-1.18-9.52.62-3.52,2-2,2.58,1.86l-.66-4.48Z"/><path class="cls-1" d="M351.86,208.22a.59.59,0,0,0,.26-.37A.64.64,0,0,0,351.86,208.22Z"/></g></g></svg>